# AST/ASF file generated using VICON BodyLanguage
# -----------------------------------------------
:version 1.10
:name VICON
:units
  mass 1.0
  length 0.45
  angle deg
:documentation
   .ast/.asf automatically generated from VICON data using
   VICON BodyBuilder and BodyLanguage model FoxedUp or BRILLIANT.MOD
:root
   order TX TY TZ RX RY RZ
   axis XYZ
   position 0 0 0  
   orientation 0 0 0 
:bonedata
  begin
     id 1 
     name lhipjoint
     direction 0.570549 -0.739093 0.358072 
     length 2.41801 
     axis 0 0 0  XYZ
  end
  begin
     id 2 
     name lfemur
     direction 0.34202 -0.939693 0  
     length 7.44434  
     axis 0 0 20  XYZ
    dof rx ry rz
    limits (-160.0 20.0)
           (-70.0 70.0)
           (-60.0 70.0)
  end
  begin
     id 3 
     name ltibia
     direction 0.34202 -0.939693 0   
     length 7.60047   
     axis 0 0 20   XYZ
    dof rx
    limits (-10.0 170.0)
  end
  begin
     id 4 
     name lfoot
     direction 0.0909041 -0.249757 0.964032   
     length 2.03437   
     axis -90 7.62852e-016 20   XYZ
    dof rx rz
    limits (-45.0 90.0)
           (-70.0 20.0)
  end
  begin
     id 5 
     name ltoes
     direction 1.53547e-011 -4.2174e-011 1   
     length 1.02054   
     axis -90 7.62852e-016 20   XYZ
    dof rx
    limits (-90.0 20.0)
  end
  begin
     id 6 
     name rhipjoint
     direction -0.558096 -0.746754 0.361784   
     length 2.3932  
     axis 0 0 0  XYZ 
  end
  begin
     id 7 
     name rfemur
     direction -0.34202 -0.939693 0   
     length 7.3886   
     axis 0 0 -20   XYZ
    dof rx ry rz
    limits (-160.0 20.0)
           (-70.0 70.0)
           (-70.0 60.0)
  end
  begin
     id 8 
     name rtibia
     direction -0.34202 -0.939693 0   
     length 7.4839   
     axis 0 0 -20   XYZ
    dof rx
    limits (-10.0 170.0)
 end
 begin
     id 9 
     name rfoot
     direction -0.114619 -0.314914 0.942174   
     length 2.25127  
     axis -90 -7.62852e-016 -20   XYZ
    dof rx rz
    limits (-45.0 90.0)
           (-20.0 70.0)
  end
  begin
     id 10 
     name rtoes
     direction -1.53518e-011 -4.21881e-011 1   
     length 1.11821   
     axis -90 -7.62852e-016 -20   XYZ
    dof rx
    limits (-90.0 20.0)
  end
  begin
     id 11 
     name lowerback
     direction -0.00902269 0.996426 -0.0839821   
     length 2.25052   
     axis 0 0 0   XYZ
    dof rx ry rz
    limits (-20.0 45.0)
           (-30.0 30.0)
           (-30.0 30.0)
  end
  begin
     id 12 
     name upperback
     direction 0.0370973 0.999169 -0.0168941   
     length 2.24876   
     axis 0 0 0   XYZ
    dof rx ry rz
    limits (-20.0 45.0)
           (-30.0 30.0)
           (-30.0 30.0)
  end
  begin
     id 13 
     name thorax
     direction 0.0402726 0.998931 0.0227027   
     length 2.26408   
     axis 0 0 0   XYZ
    dof rx ry rz
    limits (-20.0 45.0)
           (-30.0 30.0)
           (-30.0 30.0)
  end
  begin
     id 14 
     name lowerneck
     direction -0.0733697 0.98508 0.155675   
     length 1.58204   
     axis 0 0 0   XYZ
    dof rx ry rz
    limits (-20.0 45.0)
           (-30.0 30.0)
           (-30.0 30.0)
  end
  begin
     id 15 
     name upperneck
     direction 0.0426554 0.993501 -0.105526   
     length 1.61222   
     axis 0 0 0   XYZ
    dof rx ry rz
    limits (-20.0 45.0)
           (-30.0 30.0)
           (-30.0 30.0)
  end
  begin
     id 16
     name head
     direction 0.020792 0.998384 -0.0528868  
     length 1.61527  
     axis 0 0 0   XYZ
    dof rx ry rz
    limits (-20.0 45.0)
           (-30.0 30.0)
           (-30.0 30.0)
  end
  begin
     id 17 
     name lclavicle
     direction 0.967109 0.155462 -0.201325  
     length 3.59357  
     axis 0 0 0   XYZ
    dof ry rz
    limits (-20.0 10.0)
           (0.0 20.0)
  end
  begin
     id 18 
     name lhumerus
     direction 1 -4.48968e-011 2.38195e-027   
     length 5.38154   
     axis 180 -30 -90   XYZ
    dof rx ry rz
    limits (-60.0 90.0)
           (-90.0 90.0)
           (-90.0 90.0)
  end
  begin
     id 19
     name lradius
     direction 1 -4.48961e-011 4.85371e-027   
     length 3.33312   
     axis 180 -30 -90   XYZ
    dof rx
    limits (-10.0 170.0)
  end
  begin
     id 20
     name lwrist
     direction 1 -4.48961e-011 4.76515e-027   
     length 1.66656   
     axis -3.27502e-015 90 90   XYZ
    dof ry
    limits (-180.0 0.0)
 end
  begin
     id 21 
     name lhand
     direction 1 -4.48951e-011 9.53074e-027   
     length 0.710789   
     axis -6.08098e-015 90 90   XYZ
    dof rx rz
    limits (-90.0 90.0)
           (-45.0 45.0)
  end
  begin
     id 22 
     name lfingers
     direction 1 -4.48953e-011 1.90613e-026   
     length 0.573057   
     axis -1.21619e-014 90 90   XYZ
    dof rx
    limits (0.0 90.0)
  end
  begin
     id 23
     name lthumb
     direction 0.707107 -6.34973e-011 0.707107   
     length 0.822798   
     axis -90 45 -9.86923e-015   XYZ
    dof rx rz
    limits (-45.0 45.0)
           (-45.0 45.0)
  end
  begin
     id 24 
     name rclavicle
     direction -0.9585 0.265289 -0.104398   
     length 3.42039  
     axis 0 0 0   XYZ 
    dof ry rz
    limits (-10.0 20.0)
           (-20.0 0.0)
  end
  begin
     id 25 
     name rhumerus
     direction -1 -4.48977e-011 2.21478e-027  
     length 5.16954   
     axis 180 30 90   XYZ
    dof rx ry rz
    limits (-90.0 60.0)
           (-90.0 90.0)
           (-90.0 90.0)
  end
  begin
     id 26 
     name rradius
     direction -1 -4.48967e-011 5.63677e-027   
     length 3.38287   
     axis 180 30 90   XYZ
    dof rx
    limits (-10.0 170.0)
  end
  begin
     id 27 
     name rwrist
     direction -1 -4.48967e-011 4.76501e-027   
     length 1.69144   
     axis -3.27502e-015 -90 -90   XYZ
    dof ry
    limits (-180.0 0.0)
  end
  begin
     id 28
     name rhand
     direction -1 -4.48902e-011 9.53292e-027   
     length 0.817967   
     axis -6.08098e-015 -90 -90   XYZ
    dof rx rz
    limits (-90.0 90.0)
           (-45.0 45.0)
  end
  begin
     id 29
     name rfingers
     direction -1 -4.49012e-011 1.90561e-026   
     length 0.659466   
     axis -1.21619e-014 -90 -90   XYZ
    dof rx
    limits (0.0 90.0)
  end
  begin
     id 30
     name rthumb
     direction -0.707107 -6.34944e-011 0.707107   
     length 0.946865   
     axis -90 -45 9.86923e-015   XYZ
    dof rx rz
    limits (-45.0 45.0)
           (-45.0 45.0)
  end
:hierarchy
  begin
    root lhipjoint rhipjoint lowerback
    lhipjoint lfemur
    lfemur ltibia
    ltibia lfoot
    lfoot ltoes
    rhipjoint rfemur
    rfemur rtibia
    rtibia rfoot
    rfoot rtoes
    lowerback upperback
    upperback thorax
    thorax lowerneck lclavicle rclavicle
    lowerneck upperneck
    upperneck head
    lclavicle lhumerus
    lhumerus lradius
    lradius lwrist
    lwrist lhand lthumb
    lhand lfingers
    rclavicle rhumerus
    rhumerus rradius
    rradius rwrist
    rwrist rhand rthumb
    rhand rfingers
  end

#!OML:ASF F:\twosubjects\two\wednesday\Session 1\Justin1.ASF
:FULLY-SPECIFIED
:DEGREES
556
root 3.22466 17.5427 -3.48281 -172.166 -37.3897 -547.011
lowerback 3.83199 -3.15598 -6.66994
upperback 1.27425 -4.47546 1.53819
thorax -0.193132 -2.28522 5.48291
lowerneck -15.9331 -8.8668 -15.1601
upperneck 16.3713 -10.4781 9.14822
head 9.05794 -5.04826 4.18068
rclavicle 3.40916e-014 -3.97569e-015
rhumerus 34.1328 6.79582 -52.513
rradius 31.5924
rwrist 4.57394
rhand -22.4169 28.3516
rfingers 7.12502
rthumb 4.0062 -1.59044
lclavicle 3.40916e-014 -3.97569e-015
lhumerus 33.0798 -18.3743 54.9141
lradius 44.9802
lwrist -16.8997
lhand -8.93003 31.8806
lfingers 7.12502
lthumb 17.0138 61.1555
rfemur -27.5251 -13.8389 13.9319
rtibia 29.7539
rfoot -12.8728 -34.066
rtoes 29.5319
lfemur -2.11541 8.95707 -22.5377
ltibia 23.1522
lfoot -17.6579 11.7768
ltoes -13.8953
557
root 3.17403 17.5369 -3.56972 -172.356 -36.9874 -546.779
lowerback 3.82161 -3.22022 -6.32398
upperback 1.19665 -4.54712 1.62261
thorax -0.278079 -2.31429 5.3806
lowerneck -15.9702 -8.67905 -15.3171
upperneck 16.4863 -10.2161 9.29326
head 9.08691 -4.92431 4.29714
rclavicle -2.15681e-014 0
rhumerus 34.2831 6.9322 -52.7849
rradius 31.6013
rwrist 4.74708
rhand -22.3778 28.3515
rfingers 7.12502
rthumb 4.04397 -1.58982
lclavicle -2.15681e-014 0
lhumerus 32.7913 -18.307 55.0276
lradius 44.8791
lwrist -17.0088
lhand -9.33848 31.9027
lfingers 7.12502
lthumb 16.6206 61.211
rfemur -27.37 -14.1947 14.1428
rtibia 29.7156
rfoot -11.8287 -33.3609
rtoes 29.0214
lfemur -1.48895 8.4383 -22.4356
ltibia 22.8659
lfoot -17.8123 12.7846
ltoes -13.4998
558
root 3.13924 17.539 -3.65475 -172.735 -36.1805 -546
lowerback 3.79979 -3.14506 -5.71832
upperback 1.07023 -4.42188 1.83829
thorax -0.443686 -2.24117 5.26685
lowerneck -15.9386 -8.57771 -15.2501
upperneck 16.3743 -10.0389 9.08124
head 9.00371 -4.85624 4.24059
rclavicle 9.46215e-014 2.06736e-014
rhumerus 34.1872 7.52231 -52.6275
rradius 32.0836
rwrist 4.0563
rhand -22.3828 29.0737
rfingers 7.12502
rthumb 4.03914 -0.867721
lclavicle 9.46215e-014 2.06736e-014
lhumerus 32.3776 -18.3098 54.8729
lradius 45.0176
lwrist -16.8945
lhand -9.37249 31.6202
lfingers 7.12502
lthumb 16.5879 60.9312
rfemur -27.4792 -13.6476 14.7886
rtibia 29.6849
rfoot -10.979 -31.9279
rtoes 31.1886
lfemur -1.13459 8.31102 -21.8781
ltibia 22.7148
lfoot -17.9065 14.0646
ltoes -14.4928
559
root 3.09702 17.5389 -3.74474 -173.266 -35.2398 -545.102
lowerback 3.58692 -3.01794 -4.9839
upperback 1.08878 -4.21613 2.073
thorax -0.369094 -2.1419 5.07947
lowerneck -16.107 -8.56849 -15.2588
upperneck 16.4441 -9.94789 8.83978
head 9.03294 -4.83221 4.16693
rclavicle 5.25785e-014 -2.38542e-015
rhumerus 34.2367 7.89442 -52.5897
rradius 32.2984
rwrist 3.66166
rhand -22.878 30.2431
rfingers 7.12502
rthumb 3.56094 0.293141
lclavicle 5.25785e-014 -2.38542e-015
lhumerus 32.1529 -18.2262 54.8912
lradius 45.0227
lwrist -17.0359
lhand -9.26948 31.2962
lfingers 7.12502
lthumb 16.687 60.599
rfemur -27.4998 -13.3765 15.6158
rtibia 29.7805
rfoot -10.271 -30.3184
rtoes 33.0813
lfemur -0.699168 8.30994 -21.2187
ltibia 22.703
lfoot -17.878 15.243
ltoes -15.9141
560
root 3.04488 17.5318 -3.83845 -173.576 -34.5113 -544.706
lowerback 3.32969 -2.90132 -4.54878
upperback 1.18742 -4.03765 2.1741
thorax -0.16916 -2.06153 4.91647
lowerneck -16.4336 -8.54675 -15.058
upperneck 16.7207 -9.85782 8.47027
head 9.14313 -4.80817 4.01162
rclavicle 9.25343e-014 -5.24792e-014
rhumerus 34.4751 7.69472 -52.8836
rradius 32.0848
rwrist 4.20327
rhand -23.2468 31.2923
rfingers 7.12502
rthumb 3.20472 1.33659
lclavicle 9.25343e-014 -5.24792e-014
lhumerus 32.154 -18.2552 55.0052
lradius 44.897
lwrist -17.1648
lhand -9.753 30.722
lfingers 7.12502
lthumb 16.2215 60.0633
rfemur -27.3703 -14.2969 16.2171
rtibia 29.9589
rfoot -9.69393 -28.8839
rtoes 31.6543
lfemur -0.178477 8.25482 -20.9621
ltibia 22.8294
lfoot -17.9064 15.9639
ltoes -17.2367
561
root 3.00597 17.526 -3.92999 -173.715 -33.7727 -544.494
lowerback 3.30498 -2.7846 -4.33441
upperback 1.1398 -3.87405 2.20841
thorax -0.236041 -1.97595 4.82876
lowerneck -16.5671 -8.42541 -14.5591
upperneck 16.8934 -9.70767 7.98955
head 9.15391 -4.75421 3.78549
rclavicle 9.73051e-014 -3.10104e-014
rhumerus 34.5343 7.75413 -53.0965
rradius 32.0908
rwrist 4.3444
rhand -23.5045 31.4135
rfingers 7.12502
rthumb 2.95592 1.45421
lclavicle 9.73051e-014 -3.10104e-014
lhumerus 32.0036 -18.5024 54.8516
lradius 44.8725
lwrist -16.9532
lhand -10.4072 30.2623
lfingers 7.12502
lthumb 15.5915 59.6538
rfemur -27.3113 -14.9914 16.6928
rtibia 30.1988
rfoot -9.28188 -27.7796
rtoes 28.9651
lfemur 0.193088 8.19882 -20.8465
ltibia 23.0769
lfoot -18.3014 16.542
ltoes -17.2024
562
root 2.97413 17.5293 -4.01992 -174.193 -32.8766 -543.872
lowerback 3.62946 -2.61007 -3.75647
upperback 1.00225 -3.63366 2.27818
thorax -0.619119 -1.84215 4.59402
lowerneck -16.4089 -8.33369 -14.2587
upperneck 16.8694 -9.64475 7.80293
head 9.08324 -4.73015 3.68774
rclavicle 2.11706e-014 -1.74931e-014
rhumerus 34.4782 8.15627 -53.1913
rradius 32.1079
rwrist 4.00659
rhand -23.88 30.8038
rfingers 7.12502
rthumb 2.59325 0.839858
lclavicle 2.11706e-014 -1.74931e-014
lhumerus 31.6137 -18.8129 54.7296
lradius 44.9856
lwrist -16.7001
lhand -10.6635 30.2995
lfingers 7.12502
lthumb 15.3447 59.7101
rfemur -27.0862 -14.9026 17.398
rtibia 30.4736
rfoot -8.8718 -26.7603
rtoes 27.412
lfemur 0.620673 8.24154 -20.3219
ltibia 23.4643
lfoot -18.7296 17.1011
ltoes -16.6026
563
root 2.9408 17.5335 -4.10839 -174.616 -31.9276 -543.267
lowerback 3.78348 -2.4464 -3.28089
upperback 0.975887 -3.40584 2.42278
thorax -0.776053 -1.72626 4.4788
lowerneck -16.4506 -8.3318 -14.1407
upperneck 16.8515 -9.62392 7.6175
head 9.06583 -4.72953 3.60667
rclavicle 4.75095e-014 1.19271e-014
rhumerus 34.6579 8.4323 -53.2784
rradius 32.0618
rwrist 4.03934
rhand -23.7457 30.2912
rfingers 7.12502
rthumb 2.72297 0.328821
lclavicle 4.75095e-014 1.19271e-014
lhumerus 31.2906 -18.7624 54.8837
lradius 45.1279
lwrist -16.7266
lhand -10.5025 30.2306
lfingers 7.12502
lthumb 15.4997 59.6293
rfemur -26.865 -14.6571 18.0025
rtibia 30.6737
rfoot -8.59982 -25.7505
rtoes 26.8276
lfemur 0.893966 8.4381 -19.7763
ltibia 24.042
lfoot -18.6455 17.5347
ltoes -17.6516
564
root 2.91266 17.5323 -4.19589 -174.677 -30.9823 -543.114
lowerback 3.75433 -2.35751 -3.38308
upperback 0.990537 -3.29386 2.61154
thorax -0.738931 -1.67412 4.72695
lowerneck -16.5816 -8.28412 -14.3329
upperneck 16.7893 -9.49159 7.67576
head 9.06579 -4.66841 3.67366
rclavicle -6.27166e-014 2.46493e-014
rhumerus 34.7901 8.7582 -53.3102
rradius 32.4777
rwrist 4.39131
rhand -23.3116 29.366
rfingers 7.12502
rthumb 3.14219 -0.590611
lclavicle -6.27166e-014 2.46493e-014
lhumerus 30.9819 -18.4145 55.0734
lradius 45.1535
lwrist -16.9197
lhand -10.2822 30.1108
lfingers 7.12502
lthumb 15.7119 59.4929
rfemur -26.7869 -14.6047 18.249
rtibia 30.7505
rfoot -8.56443 -24.7939
rtoes 26.846
lfemur 0.889484 8.64641 -19.6545
ltibia 24.7843
lfoot -18.1091 18.089
ltoes -20.2247
565
root 2.89262 17.5272 -4.28465 -174.947 -29.925 -542.977
lowerback 4.06693 -2.18802 -3.5413
upperback 1.01626 -3.08648 2.75163
thorax -0.893001 -1.56995 4.97042
lowerneck -16.8029 -8.2371 -14.6586
upperneck 16.941 -9.39737 8.0428
head 9.18266 -4.60586 3.86197
rclavicle 5.54609e-014 -1.59028e-014
rhumerus 34.7679 9.00244 -53.4403
rradius 32.6995
rwrist 5.09851
rhand -23.802 28.9295
rfingers 7.12502
rthumb 2.6686 -1.03353
lclavicle 5.54609e-014 -1.59028e-014
lhumerus 30.6841 -18.3281 54.9761
lradius 45.11
lwrist -16.9195
lhand -10.5769 29.9891
lfingers 7.12502
lthumb 15.4281 59.3934
rfemur -26.4867 -14.6888 18.5621
rtibia 30.7672
rfoot -8.33131 -23.7999
rtoes 25.631
lfemur 1.08345 8.99033 -19.4845
ltibia 25.6452
lfoot -17.6081 18.5905
ltoes -21.8573
566
root 2.87257 17.5283 -4.37851 -175.294 -29.0746 -542.732
lowerback 4.39097 -2.02044 -3.51924
upperback 1.05185 -2.87444 2.8063
thorax -1.0595 -1.46249 5.0214
lowerneck -17.8087 -8.35078 -13.9833
upperneck 17.9537 -9.4562 7.12582
head 9.63809 -4.67451 3.39751
rclavicle -3.6477e-014 -4.45278e-014
rhumerus 34.8306 9.13244 -53.608
rradius 32.4053
rwrist 5.58271
rhand -23.2331 33.6464
rfingers 7.12502
rthumb 3.21802 3.69095
lclavicle -3.6477e-014 -4.45278e-014
lhumerus 30.5115 -18.51 54.7812
lradius 45.097
lwrist -16.9544
lhand -11.0301 29.6306
lfingers 7.12502
lthumb 14.9915 59.068
rfemur -26.0538 -14.8046 18.9452
rtibia 30.7602
rfoot -8.19081 -22.8882
rtoes 24.1975
lfemur 1.27041 9.22114 -19.1289
ltibia 26.6423
lfoot -17.3537 18.6931
ltoes -21.8967
567
root 2.84775 17.5463 -4.47747 -175.297 -28.6172 -542.455
lowerback 4.16929 -2.00171 -3.36545
upperback 1.0562 -2.83826 2.85541
thorax -0.940255 -1.44825 4.97352
lowerneck -17.1703 -8.30189 -14.2494
upperneck 17.1756 -9.52824 7.91867
head 9.31644 -4.64694 3.72433
rclavicle -3.43897e-014 1.19271e-014
rhumerus 34.8001 9.33868 -53.6642
rradius 32.55
rwrist 5.18861
rhand -23.7275 33.38
rfingers 7.12502
rthumb 2.7405 3.41783
lclavicle -3.43897e-014 1.19271e-014
lhumerus 30.4058 -18.7089 54.5456
lradius 45.2603
lwrist -17.1247
lhand -11.1524 29.3703
lfingers 7.12502
lthumb 14.8736 58.8164
rfemur -25.8701 -14.9584 19.3577
rtibia 30.7073
rfoot -8.37723 -22.226
rtoes 24.2087
lfemur 0.935298 9.01676 -18.7638
ltibia 27.8249
lfoot -17.1291 18.6281
ltoes -21.9508
568
root 2.83111 17.564 -4.57359 -175.232 -28.0983 -542.128
lowerback 3.75054 -1.96532 -3.15568
upperback 1.1451 -2.77458 2.86248
thorax -0.63141 -1.42613 4.83819
lowerneck -16.4886 -8.17461 -14.4895
upperneck 16.2603 -9.51762 8.85431
head 8.94072 -4.57011 4.10774
rclavicle 5.06901e-015 -1.11319e-014
rhumerus 34.6825 9.18225 -54.0927
rradius 32.9278
rwrist 4.84526
rhand -25.0454 27.117
rfingers 7.12502
rthumb 1.46772 -2.85774
lclavicle 5.06901e-015 -1.11319e-014
lhumerus 30.63 -18.841 54.1091
lradius 45.3418
lwrist -17.1183
lhand -11.3199 29.1149
lfingers 7.12502
lthumb 14.7123 58.5729
rfemur -25.7836 -14.866 19.8556
rtibia 30.5939
rfoot -8.53983 -21.7811
rtoes 24.4139
lfemur 0.343059 9.12802 -18.2934
ltibia 29.2272
lfoot -16.4708 18.5199
ltoes -22.5861
569
root 2.82607 17.5735 -4.66671 -175.115 -27.0514 -542.02
lowerback 3.43389 -1.77611 -3.30852
upperback 1.25915 -2.52053 2.80175
thorax -0.360056 -1.30701 4.83743
lowerneck -16.2338 -8.10822 -14.52
upperneck 15.7875 -9.54185 9.45739
head 8.77122 -4.52801 4.32415
rclavicle -3.8763e-015 1.74931e-014
rhumerus 34.7046 8.9962 -54.7022
rradius 32.9675
rwrist 4.8692
rhand -24.9862 26.8499
rfingers 7.12502
rthumb 1.52494 -3.12441
lclavicle -3.8763e-015 1.74931e-014
lhumerus 30.8667 -18.7459 53.8249
lradius 45.1778
lwrist -17.1579
lhand -11.4745 28.7673
lfingers 7.12502
lthumb 14.5634 58.2361
rfemur -25.7054 -14.2256 20.1276
rtibia 30.4382
rfoot -8.63125 -21.3805
rtoes 24.6932
lfemur -0.272648 9.9917 -17.976
ltibia 30.8175
lfoot -15.5517 18.3452
ltoes -23.8658
